<svg xmlns="http://www.w3.org/2000/svg" xmlns:xlink="http://www.w3.org/1999/xlink" width="500" zoomAndPan="magnify" viewBox="0 0 375 74.999997" height="100" preserveAspectRatio="xMidYMid meet" version="1.0"><defs><g/></defs><rect x="-37.5" width="450" fill="#ffffff" y="-7.5" height="89.999996" fill-opacity="1"/><rect x="-37.5" width="450" fill="#000000" y="-7.5" height="89.999996" fill-opacity="1"/><g fill="#ffffff" fill-opacity="1"><g transform="translate(14.972993, 58.058737)"><g><path d="M 17.5 -32.640625 C 19.3125 -32.640625 21.101562 -32.429688 22.875 -32.015625 C 24.644531 -31.609375 25.960938 -31.203125 26.828125 -30.796875 L 28.125 -30.171875 L 24.546875 -23 C 22.078125 -24.320312 19.726562 -24.984375 17.5 -24.984375 C 16.257812 -24.984375 15.378906 -24.847656 14.859375 -24.578125 C 14.347656 -24.304688 14.09375 -23.800781 14.09375 -23.0625 C 14.09375 -22.894531 14.113281 -22.726562 14.15625 -22.5625 C 14.195312 -22.394531 14.28125 -22.238281 14.40625 -22.09375 C 14.53125 -21.957031 14.644531 -21.835938 14.75 -21.734375 C 14.851562 -21.628906 15.023438 -21.515625 15.265625 -21.390625 C 15.515625 -21.265625 15.710938 -21.171875 15.859375 -21.109375 C 16.003906 -21.046875 16.238281 -20.953125 16.5625 -20.828125 C 16.894531 -20.710938 17.144531 -20.625 17.3125 -20.5625 C 17.476562 -20.5 17.753906 -20.40625 18.140625 -20.28125 C 18.535156 -20.15625 18.835938 -20.070312 19.046875 -20.03125 C 20.316406 -19.65625 21.425781 -19.238281 22.375 -18.78125 C 23.320312 -18.332031 24.320312 -17.71875 25.375 -16.9375 C 26.425781 -16.15625 27.238281 -15.164062 27.8125 -13.96875 C 28.394531 -12.78125 28.6875 -11.421875 28.6875 -9.890625 C 28.6875 -2.679688 23.675781 0.921875 13.65625 0.921875 C 11.394531 0.921875 9.242188 0.570312 7.203125 -0.125 C 5.160156 -0.820312 3.6875 -1.519531 2.78125 -2.21875 L 1.421875 -3.34375 L 5.875 -10.8125 C 6.207031 -10.53125 6.640625 -10.191406 7.171875 -9.796875 C 7.703125 -9.410156 8.671875 -8.875 10.078125 -8.1875 C 11.484375 -7.507812 12.695312 -7.171875 13.71875 -7.171875 C 15.988281 -7.171875 17.125 -7.929688 17.125 -9.453125 C 17.125 -10.160156 16.832031 -10.707031 16.25 -11.09375 C 15.675781 -11.488281 14.695312 -11.929688 13.3125 -12.421875 C 11.9375 -12.921875 10.859375 -13.375 10.078125 -13.78125 C 8.097656 -14.8125 6.53125 -15.976562 5.375 -17.28125 C 4.21875 -18.582031 3.640625 -20.300781 3.640625 -22.4375 C 3.640625 -25.65625 4.882812 -28.160156 7.375 -29.953125 C 9.875 -31.742188 13.25 -32.640625 17.5 -32.640625 Z M 17.5 -32.640625 "/></g></g></g><g fill="#ffffff" fill-opacity="1"><g transform="translate(39.579722, 58.058737)"><g><path d="M 5.5625 -31.71875 L 5.5625 -43.53125 L 16.515625 -43.53125 L 16.515625 -31.71875 L 23.1875 -31.71875 L 23.1875 -23.375 L 16.515625 -23.375 L 16.515625 -13.296875 C 16.515625 -10.367188 17.335938 -8.90625 18.984375 -8.90625 C 19.390625 -8.90625 19.816406 -8.984375 20.265625 -9.140625 C 20.722656 -9.304688 21.078125 -9.472656 21.328125 -9.640625 L 21.703125 -9.890625 L 24.421875 -1.046875 C 22.066406 0.265625 19.390625 0.921875 16.390625 0.921875 C 14.328125 0.921875 12.550781 0.5625 11.0625 -0.15625 C 9.582031 -0.875 8.457031 -1.84375 7.6875 -3.0625 C 6.925781 -4.28125 6.378906 -5.554688 6.046875 -6.890625 C 5.722656 -8.234375 5.5625 -9.664062 5.5625 -11.1875 L 5.5625 -23.375 L 0.984375 -23.375 L 0.984375 -31.71875 Z M 5.5625 -31.71875 "/></g></g></g><g fill="#ffffff" fill-opacity="1"><g transform="translate(58.189119, 58.058737)"><g><path d="M 3.703125 0 L 3.703125 -31.71875 L 14.65625 -31.71875 L 14.65625 -27.140625 L 14.78125 -27.140625 C 14.863281 -27.304688 14.992188 -27.507812 15.171875 -27.75 C 15.359375 -28 15.757812 -28.429688 16.375 -29.046875 C 17 -29.671875 17.660156 -30.226562 18.359375 -30.71875 C 19.054688 -31.21875 19.960938 -31.660156 21.078125 -32.046875 C 22.191406 -32.441406 23.328125 -32.640625 24.484375 -32.640625 C 25.679688 -32.640625 26.851562 -32.472656 28 -32.140625 C 29.15625 -31.816406 30.003906 -31.488281 30.546875 -31.15625 L 31.40625 -30.671875 L 26.828125 -21.390625 C 25.472656 -22.546875 23.578125 -23.125 21.140625 -23.125 C 19.828125 -23.125 18.695312 -22.832031 17.75 -22.25 C 16.800781 -21.675781 16.128906 -20.976562 15.734375 -20.15625 C 15.335938 -19.332031 15.054688 -18.628906 14.890625 -18.046875 C 14.734375 -17.472656 14.65625 -17.019531 14.65625 -16.6875 L 14.65625 0 Z M 3.703125 0 "/></g></g></g><g fill="#ffffff" fill-opacity="1"><g transform="translate(83.166808, 58.058737)"><g><path d="M 35.796875 -14.34375 L 12.796875 -14.34375 C 12.796875 -12.113281 13.515625 -10.460938 14.953125 -9.390625 C 16.398438 -8.328125 17.96875 -7.796875 19.65625 -7.796875 C 21.425781 -7.796875 22.828125 -8.03125 23.859375 -8.5 C 24.890625 -8.976562 26.066406 -9.914062 27.390625 -11.3125 L 35.296875 -7.359375 C 32.003906 -1.835938 26.523438 0.921875 18.859375 0.921875 C 14.078125 0.921875 9.972656 -0.710938 6.546875 -3.984375 C 3.128906 -7.265625 1.421875 -11.210938 1.421875 -15.828125 C 1.421875 -20.441406 3.128906 -24.394531 6.546875 -27.6875 C 9.972656 -30.988281 14.078125 -32.640625 18.859375 -32.640625 C 23.890625 -32.640625 27.976562 -31.1875 31.125 -28.28125 C 34.28125 -25.375 35.859375 -21.222656 35.859375 -15.828125 C 35.859375 -15.085938 35.835938 -14.59375 35.796875 -14.34375 Z M 13.109375 -20.40625 L 25.15625 -20.40625 C 24.914062 -22.050781 24.269531 -23.316406 23.21875 -24.203125 C 22.164062 -25.085938 20.816406 -25.53125 19.171875 -25.53125 C 17.359375 -25.53125 15.914062 -25.054688 14.84375 -24.109375 C 13.769531 -23.160156 13.191406 -21.925781 13.109375 -20.40625 Z M 13.109375 -20.40625 "/></g></g></g><g fill="#ffffff" fill-opacity="1"><g transform="translate(114.636456, 58.058737)"><g><path d="M 5.875 -3.921875 C 2.90625 -7.160156 1.421875 -11.128906 1.421875 -15.828125 C 1.421875 -20.523438 2.90625 -24.5 5.875 -27.75 C 8.84375 -31.007812 12.613281 -32.640625 17.1875 -32.640625 C 21.394531 -32.640625 24.859375 -31.320312 27.578125 -28.6875 L 27.578125 -31.71875 L 38.515625 -31.71875 L 38.515625 0 L 27.703125 0 L 27.703125 -3.59375 L 27.578125 -3.59375 C 24.859375 -0.582031 21.394531 0.921875 17.1875 0.921875 C 12.613281 0.921875 8.84375 -0.691406 5.875 -3.921875 Z M 15.171875 -21.203125 C 13.753906 -19.804688 13.046875 -18.015625 13.046875 -15.828125 C 13.046875 -13.640625 13.722656 -11.851562 15.078125 -10.46875 C 16.441406 -9.09375 18.238281 -8.40625 20.46875 -8.40625 C 22.613281 -8.40625 24.375 -9.101562 25.75 -10.5 C 27.132812 -11.90625 27.828125 -13.679688 27.828125 -15.828125 C 27.828125 -18.015625 27.113281 -19.804688 25.6875 -21.203125 C 24.269531 -22.609375 22.53125 -23.3125 20.46875 -23.3125 C 18.363281 -23.3125 16.597656 -22.609375 15.171875 -21.203125 Z M 15.171875 -21.203125 "/></g></g></g><g fill="#ffffff" fill-opacity="1"><g transform="translate(151.052355, 58.058737)"><g><path d="M 3.703125 0 L 3.703125 -31.71875 L 14.65625 -31.71875 L 14.65625 -28.375 L 14.78125 -28.375 C 17.625 -31.21875 20.648438 -32.640625 23.859375 -32.640625 C 26.171875 -32.640625 28.335938 -32.164062 30.359375 -31.21875 C 32.378906 -30.269531 33.90625 -28.804688 34.9375 -26.828125 C 38.144531 -30.703125 41.644531 -32.640625 45.4375 -32.640625 C 48.820312 -32.640625 51.726562 -31.691406 54.15625 -29.796875 C 56.59375 -27.898438 57.8125 -24.929688 57.8125 -20.890625 L 57.8125 0 L 46.859375 0 L 46.859375 -17.9375 C 46.859375 -19.625 46.394531 -21.03125 45.46875 -22.15625 C 44.539062 -23.289062 43.148438 -23.859375 41.296875 -23.859375 C 39.691406 -23.859375 38.46875 -23.375 37.625 -22.40625 C 36.78125 -21.4375 36.316406 -20.273438 36.234375 -18.921875 L 36.234375 0 L 25.28125 0 L 25.28125 -17.9375 C 25.28125 -19.625 24.816406 -21.03125 23.890625 -22.15625 C 22.960938 -23.289062 21.570312 -23.859375 19.71875 -23.859375 C 18.03125 -23.859375 16.765625 -23.332031 15.921875 -22.28125 C 15.078125 -21.238281 14.65625 -19.992188 14.65625 -18.546875 L 14.65625 0 Z M 3.703125 0 "/></g></g></g><g fill="#ffffff" fill-opacity="1"><g transform="translate(206.140351, 58.058737)"><g><path d="M 36.359375 -27.75 C 39.328125 -24.5 40.8125 -20.523438 40.8125 -15.828125 C 40.8125 -11.128906 39.328125 -7.160156 36.359375 -3.921875 C 33.390625 -0.691406 29.617188 0.921875 25.046875 0.921875 C 20.835938 0.921875 17.375 -0.582031 14.65625 -3.59375 L 14.53125 -3.59375 L 14.53125 0 L 3.703125 0 L 3.703125 -53.171875 L 14.65625 -53.171875 L 14.65625 -28.6875 C 17.375 -31.320312 20.835938 -32.640625 25.046875 -32.640625 C 29.617188 -32.640625 33.390625 -31.007812 36.359375 -27.75 Z M 27.140625 -10.46875 C 28.503906 -11.851562 29.1875 -13.640625 29.1875 -15.828125 C 29.1875 -18.015625 28.472656 -19.804688 27.046875 -21.203125 C 25.628906 -22.609375 23.867188 -23.3125 21.765625 -23.3125 C 19.703125 -23.3125 17.957031 -22.609375 16.53125 -21.203125 C 15.113281 -19.804688 14.40625 -18.015625 14.40625 -15.828125 C 14.40625 -13.679688 15.09375 -11.90625 16.46875 -10.5 C 17.851562 -9.101562 19.617188 -8.40625 21.765625 -8.40625 C 23.992188 -8.40625 25.785156 -9.09375 27.140625 -10.46875 Z M 27.140625 -10.46875 "/></g></g></g><g fill="#ffffff" fill-opacity="1"><g transform="translate(242.556249, 58.058737)"><g><path d="M 5.875 -3.921875 C 2.90625 -7.160156 1.421875 -11.128906 1.421875 -15.828125 C 1.421875 -20.523438 2.90625 -24.5 5.875 -27.75 C 8.84375 -31.007812 12.613281 -32.640625 17.1875 -32.640625 C 21.394531 -32.640625 24.859375 -31.320312 27.578125 -28.6875 L 27.578125 -31.71875 L 38.515625 -31.71875 L 38.515625 0 L 27.703125 0 L 27.703125 -3.59375 L 27.578125 -3.59375 C 24.859375 -0.582031 21.394531 0.921875 17.1875 0.921875 C 12.613281 0.921875 8.84375 -0.691406 5.875 -3.921875 Z M 15.171875 -21.203125 C 13.753906 -19.804688 13.046875 -18.015625 13.046875 -15.828125 C 13.046875 -13.640625 13.722656 -11.851562 15.078125 -10.46875 C 16.441406 -9.09375 18.238281 -8.40625 20.46875 -8.40625 C 22.613281 -8.40625 24.375 -9.101562 25.75 -10.5 C 27.132812 -11.90625 27.828125 -13.679688 27.828125 -15.828125 C 27.828125 -18.015625 27.113281 -19.804688 25.6875 -21.203125 C 24.269531 -22.609375 22.53125 -23.3125 20.46875 -23.3125 C 18.363281 -23.3125 16.597656 -22.609375 15.171875 -21.203125 Z M 15.171875 -21.203125 "/></g></g></g><g fill="#ffffff" fill-opacity="1"><g transform="translate(278.972148, 58.058737)"><g><path d="M 17.5 -32.640625 C 19.3125 -32.640625 21.101562 -32.429688 22.875 -32.015625 C 24.644531 -31.609375 25.960938 -31.203125 26.828125 -30.796875 L 28.125 -30.171875 L 24.546875 -23 C 22.078125 -24.320312 19.726562 -24.984375 17.5 -24.984375 C 16.257812 -24.984375 15.378906 -24.847656 14.859375 -24.578125 C 14.347656 -24.304688 14.09375 -23.800781 14.09375 -23.0625 C 14.09375 -22.894531 14.113281 -22.726562 14.15625 -22.5625 C 14.195312 -22.394531 14.28125 -22.238281 14.40625 -22.09375 C 14.53125 -21.957031 14.644531 -21.835938 14.75 -21.734375 C 14.851562 -21.628906 15.023438 -21.515625 15.265625 -21.390625 C 15.515625 -21.265625 15.710938 -21.171875 15.859375 -21.109375 C 16.003906 -21.046875 16.238281 -20.953125 16.5625 -20.828125 C 16.894531 -20.710938 17.144531 -20.625 17.3125 -20.5625 C 17.476562 -20.5 17.753906 -20.40625 18.140625 -20.28125 C 18.535156 -20.15625 18.835938 -20.070312 19.046875 -20.03125 C 20.316406 -19.65625 21.425781 -19.238281 22.375 -18.78125 C 23.320312 -18.332031 24.320312 -17.71875 25.375 -16.9375 C 26.425781 -16.15625 27.238281 -15.164062 27.8125 -13.96875 C 28.394531 -12.78125 28.6875 -11.421875 28.6875 -9.890625 C 28.6875 -2.679688 23.675781 0.921875 13.65625 0.921875 C 11.394531 0.921875 9.242188 0.570312 7.203125 -0.125 C 5.160156 -0.820312 3.6875 -1.519531 2.78125 -2.21875 L 1.421875 -3.34375 L 5.875 -10.8125 C 6.207031 -10.53125 6.640625 -10.191406 7.171875 -9.796875 C 7.703125 -9.410156 8.671875 -8.875 10.078125 -8.1875 C 11.484375 -7.507812 12.695312 -7.171875 13.71875 -7.171875 C 15.988281 -7.171875 17.125 -7.929688 17.125 -9.453125 C 17.125 -10.160156 16.832031 -10.707031 16.25 -11.09375 C 15.675781 -11.488281 14.695312 -11.929688 13.3125 -12.421875 C 11.9375 -12.921875 10.859375 -13.375 10.078125 -13.78125 C 8.097656 -14.8125 6.53125 -15.976562 5.375 -17.28125 C 4.21875 -18.582031 3.640625 -20.300781 3.640625 -22.4375 C 3.640625 -25.65625 4.882812 -28.160156 7.375 -29.953125 C 9.875 -31.742188 13.25 -32.640625 17.5 -32.640625 Z M 17.5 -32.640625 "/></g></g></g><g fill="#ffffff" fill-opacity="1"><g transform="translate(303.578866, 58.058737)"><g><path d="M 35.796875 -14.34375 L 12.796875 -14.34375 C 12.796875 -12.113281 13.515625 -10.460938 14.953125 -9.390625 C 16.398438 -8.328125 17.96875 -7.796875 19.65625 -7.796875 C 21.425781 -7.796875 22.828125 -8.03125 23.859375 -8.5 C 24.890625 -8.976562 26.066406 -9.914062 27.390625 -11.3125 L 35.296875 -7.359375 C 32.003906 -1.835938 26.523438 0.921875 18.859375 0.921875 C 14.078125 0.921875 9.972656 -0.710938 6.546875 -3.984375 C 3.128906 -7.265625 1.421875 -11.210938 1.421875 -15.828125 C 1.421875 -20.441406 3.128906 -24.394531 6.546875 -27.6875 C 9.972656 -30.988281 14.078125 -32.640625 18.859375 -32.640625 C 23.890625 -32.640625 27.976562 -31.1875 31.125 -28.28125 C 34.28125 -25.375 35.859375 -21.222656 35.859375 -15.828125 C 35.859375 -15.085938 35.835938 -14.59375 35.796875 -14.34375 Z M 13.109375 -20.40625 L 25.15625 -20.40625 C 24.914062 -22.050781 24.269531 -23.316406 23.21875 -24.203125 C 22.164062 -25.085938 20.816406 -25.53125 19.171875 -25.53125 C 17.359375 -25.53125 15.914062 -25.054688 14.84375 -24.109375 C 13.769531 -23.160156 13.191406 -21.925781 13.109375 -20.40625 Z M 13.109375 -20.40625 "/></g></g></g><g fill="#feb508" fill-opacity="1"><g transform="translate(351.046379, 14.623827)"><g><path d="M 4.546875 -5.59375 C 5.390625 -5.59375 6.101562 -5.300781 6.6875 -4.71875 C 7.269531 -4.132812 7.5625 -3.425781 7.5625 -2.59375 C 7.5625 -1.769531 7.269531 -1.066406 6.6875 -0.484375 C 6.101562 0.0976562 5.390625 0.390625 4.546875 0.390625 C 3.734375 0.390625 3.035156 0.0976562 2.453125 -0.484375 C 1.867188 -1.066406 1.578125 -1.769531 1.578125 -2.59375 C 1.578125 -3.425781 1.867188 -4.132812 2.453125 -4.71875 C 3.035156 -5.300781 3.734375 -5.59375 4.546875 -5.59375 Z M 4.546875 -5.59375 "/></g></g></g><g fill="#ff3131" fill-opacity="1"><g transform="translate(351.046379, 27.618037)"><g><path d="M 4.546875 -5.59375 C 5.390625 -5.59375 6.101562 -5.300781 6.6875 -4.71875 C 7.269531 -4.132812 7.5625 -3.425781 7.5625 -2.59375 C 7.5625 -1.769531 7.269531 -1.066406 6.6875 -0.484375 C 6.101562 0.0976562 5.390625 0.390625 4.546875 0.390625 C 3.734375 0.390625 3.035156 0.0976562 2.453125 -0.484375 C 1.867188 -1.066406 1.578125 -1.769531 1.578125 -2.59375 C 1.578125 -3.425781 1.867188 -4.132812 2.453125 -4.71875 C 3.035156 -5.300781 3.734375 -5.59375 4.546875 -5.59375 Z M 4.546875 -5.59375 "/></g></g></g><g fill="#ff66c4" fill-opacity="1"><g transform="translate(351.046379, 40.612248)"><g><path d="M 4.546875 -5.59375 C 5.390625 -5.59375 6.101562 -5.300781 6.6875 -4.71875 C 7.269531 -4.132812 7.5625 -3.425781 7.5625 -2.59375 C 7.5625 -1.769531 7.269531 -1.066406 6.6875 -0.484375 C 6.101562 0.0976562 5.390625 0.390625 4.546875 0.390625 C 3.734375 0.390625 3.035156 0.0976562 2.453125 -0.484375 C 1.867188 -1.066406 1.578125 -1.769531 1.578125 -2.59375 C 1.578125 -3.425781 1.867188 -4.132812 2.453125 -4.71875 C 3.035156 -5.300781 3.734375 -5.59375 4.546875 -5.59375 Z M 4.546875 -5.59375 "/></g></g></g><g fill="#26ccfc" fill-opacity="1"><g transform="translate(351.046379, 53.606458)"><g><path d="M 4.546875 -5.59375 C 5.390625 -5.59375 6.101562 -5.300781 6.6875 -4.71875 C 7.269531 -4.132812 7.5625 -3.425781 7.5625 -2.59375 C 7.5625 -1.769531 7.269531 -1.066406 6.6875 -0.484375 C 6.101562 0.0976562 5.390625 0.390625 4.546875 0.390625 C 3.734375 0.390625 3.035156 0.0976562 2.453125 -0.484375 C 1.867188 -1.066406 1.578125 -1.769531 1.578125 -2.59375 C 1.578125 -3.425781 1.867188 -4.132812 2.453125 -4.71875 C 3.035156 -5.300781 3.734375 -5.59375 4.546875 -5.59375 Z M 4.546875 -5.59375 "/></g></g></g><g fill="#004aad" fill-opacity="1"><g transform="translate(351.046379, 66.600668)"><g><path d="M 4.546875 -5.59375 C 5.390625 -5.59375 6.101562 -5.300781 6.6875 -4.71875 C 7.269531 -4.132812 7.5625 -3.425781 7.5625 -2.59375 C 7.5625 -1.769531 7.269531 -1.066406 6.6875 -0.484375 C 6.101562 0.0976562 5.390625 0.390625 4.546875 0.390625 C 3.734375 0.390625 3.035156 0.0976562 2.453125 -0.484375 C 1.867188 -1.066406 1.578125 -1.769531 1.578125 -2.59375 C 1.578125 -3.425781 1.867188 -4.132812 2.453125 -4.71875 C 3.035156 -5.300781 3.734375 -5.59375 4.546875 -5.59375 Z M 4.546875 -5.59375 "/></g></g></g></svg>