<svg xmlns="http://www.w3.org/2000/svg" xmlns:xlink="http://www.w3.org/1999/xlink" width="500" zoomAndPan="magnify" viewBox="0 0 375 67.499998" height="90" preserveAspectRatio="xMidYMid meet" version="1.0"><defs><g/></defs><g fill="#ffffff" fill-opacity="1"><g transform="translate(128.400086, 39.343845)"><g><path d="M 6.109375 -11.390625 C 6.734375 -11.390625 7.351562 -11.316406 7.96875 -11.171875 C 8.59375 -11.023438 9.054688 -10.878906 9.359375 -10.734375 L 9.8125 -10.515625 L 8.5625 -8.015625 C 7.695312 -8.484375 6.878906 -8.71875 6.109375 -8.71875 C 5.671875 -8.71875 5.363281 -8.671875 5.1875 -8.578125 C 5.007812 -8.484375 4.921875 -8.304688 4.921875 -8.046875 C 4.921875 -7.984375 4.925781 -7.921875 4.9375 -7.859375 C 4.945312 -7.804688 4.972656 -7.753906 5.015625 -7.703125 C 5.066406 -7.660156 5.109375 -7.617188 5.140625 -7.578125 C 5.179688 -7.546875 5.242188 -7.503906 5.328125 -7.453125 C 5.410156 -7.410156 5.476562 -7.378906 5.53125 -7.359375 C 5.582031 -7.335938 5.664062 -7.304688 5.78125 -7.265625 C 5.894531 -7.222656 5.976562 -7.191406 6.03125 -7.171875 C 6.09375 -7.148438 6.191406 -7.117188 6.328125 -7.078125 C 6.460938 -7.035156 6.566406 -7.003906 6.640625 -6.984375 C 7.085938 -6.859375 7.472656 -6.710938 7.796875 -6.546875 C 8.128906 -6.390625 8.476562 -6.175781 8.84375 -5.90625 C 9.21875 -5.632812 9.503906 -5.289062 9.703125 -4.875 C 9.898438 -4.457031 10 -3.984375 10 -3.453125 C 10 -0.929688 8.253906 0.328125 4.765625 0.328125 C 3.972656 0.328125 3.21875 0.207031 2.5 -0.03125 C 1.789062 -0.28125 1.28125 -0.53125 0.96875 -0.78125 L 0.5 -1.171875 L 2.046875 -3.78125 C 2.160156 -3.675781 2.3125 -3.554688 2.5 -3.421875 C 2.6875 -3.285156 3.023438 -3.097656 3.515625 -2.859375 C 4.003906 -2.617188 4.425781 -2.5 4.78125 -2.5 C 5.570312 -2.5 5.96875 -2.765625 5.96875 -3.296875 C 5.96875 -3.546875 5.867188 -3.738281 5.671875 -3.875 C 5.472656 -4.007812 5.128906 -4.160156 4.640625 -4.328125 C 4.160156 -4.503906 3.785156 -4.664062 3.515625 -4.8125 C 2.828125 -5.164062 2.28125 -5.566406 1.875 -6.015625 C 1.46875 -6.472656 1.265625 -7.078125 1.265625 -7.828125 C 1.265625 -8.953125 1.695312 -9.828125 2.5625 -10.453125 C 3.4375 -11.078125 4.617188 -11.390625 6.109375 -11.390625 Z M 6.109375 -11.390625 "/></g></g></g><g fill="#ffffff" fill-opacity="1"><g transform="translate(136.979272, 39.343845)"><g><path d="M 1.9375 -11.0625 L 1.9375 -15.1875 L 5.75 -15.1875 L 5.75 -11.0625 L 8.09375 -11.0625 L 8.09375 -8.15625 L 5.75 -8.15625 L 5.75 -4.640625 C 5.75 -3.617188 6.039062 -3.109375 6.625 -3.109375 C 6.757812 -3.109375 6.90625 -3.132812 7.0625 -3.1875 C 7.226562 -3.25 7.351562 -3.304688 7.4375 -3.359375 L 7.5625 -3.453125 L 8.515625 -0.359375 C 7.691406 0.0976562 6.757812 0.328125 5.71875 0.328125 C 5 0.328125 4.378906 0.203125 3.859375 -0.046875 C 3.335938 -0.304688 2.941406 -0.644531 2.671875 -1.0625 C 2.410156 -1.488281 2.222656 -1.9375 2.109375 -2.40625 C 1.992188 -2.875 1.9375 -3.375 1.9375 -3.90625 L 1.9375 -8.15625 L 0.34375 -8.15625 L 0.34375 -11.0625 Z M 1.9375 -11.0625 "/></g></g></g><g fill="#ffffff" fill-opacity="1"><g transform="translate(143.467404, 39.343845)"><g><path d="M 1.296875 0 L 1.296875 -11.0625 L 5.109375 -11.0625 L 5.109375 -9.46875 L 5.15625 -9.46875 C 5.1875 -9.519531 5.234375 -9.585938 5.296875 -9.671875 C 5.359375 -9.765625 5.492188 -9.914062 5.703125 -10.125 C 5.921875 -10.34375 6.148438 -10.535156 6.390625 -10.703125 C 6.640625 -10.878906 6.957031 -11.035156 7.34375 -11.171875 C 7.738281 -11.316406 8.132812 -11.390625 8.53125 -11.390625 C 8.957031 -11.390625 9.367188 -11.332031 9.765625 -11.21875 C 10.171875 -11.101562 10.46875 -10.988281 10.65625 -10.875 L 10.953125 -10.6875 L 9.359375 -7.453125 C 8.878906 -7.859375 8.21875 -8.0625 7.375 -8.0625 C 6.914062 -8.0625 6.519531 -7.957031 6.1875 -7.75 C 5.851562 -7.550781 5.617188 -7.304688 5.484375 -7.015625 C 5.347656 -6.734375 5.25 -6.492188 5.1875 -6.296875 C 5.132812 -6.097656 5.109375 -5.941406 5.109375 -5.828125 L 5.109375 0 Z M 1.296875 0 "/></g></g></g><g fill="#ffffff" fill-opacity="1"><g transform="translate(152.175932, 39.343845)"><g><path d="M 12.484375 -5 L 4.46875 -5 C 4.46875 -4.226562 4.71875 -3.65625 5.21875 -3.28125 C 5.71875 -2.90625 6.265625 -2.71875 6.859375 -2.71875 C 7.472656 -2.71875 7.957031 -2.800781 8.3125 -2.96875 C 8.675781 -3.132812 9.085938 -3.460938 9.546875 -3.953125 L 12.3125 -2.5625 C 11.164062 -0.632812 9.253906 0.328125 6.578125 0.328125 C 4.910156 0.328125 3.476562 -0.242188 2.28125 -1.390625 C 1.09375 -2.535156 0.5 -3.910156 0.5 -5.515625 C 0.5 -7.128906 1.09375 -8.507812 2.28125 -9.65625 C 3.476562 -10.8125 4.910156 -11.390625 6.578125 -11.390625 C 8.328125 -11.390625 9.75 -10.878906 10.84375 -9.859375 C 11.945312 -8.847656 12.5 -7.398438 12.5 -5.515625 C 12.5 -5.253906 12.492188 -5.082031 12.484375 -5 Z M 4.578125 -7.109375 L 8.78125 -7.109375 C 8.6875 -7.691406 8.457031 -8.132812 8.09375 -8.4375 C 7.726562 -8.75 7.257812 -8.90625 6.6875 -8.90625 C 6.050781 -8.90625 5.546875 -8.738281 5.171875 -8.40625 C 4.796875 -8.070312 4.597656 -7.640625 4.578125 -7.109375 Z M 4.578125 -7.109375 "/></g></g></g><g fill="#ffffff" fill-opacity="1"><g transform="translate(163.147968, 39.343845)"><g><path d="M 2.046875 -1.359375 C 1.015625 -2.492188 0.5 -3.878906 0.5 -5.515625 C 0.5 -7.160156 1.015625 -8.550781 2.046875 -9.6875 C 3.078125 -10.820312 4.394531 -11.390625 6 -11.390625 C 7.457031 -11.390625 8.660156 -10.925781 9.609375 -10 L 9.609375 -11.0625 L 13.4375 -11.0625 L 13.4375 0 L 9.65625 0 L 9.65625 -1.25 L 9.609375 -1.25 C 8.660156 -0.195312 7.457031 0.328125 6 0.328125 C 4.394531 0.328125 3.078125 -0.234375 2.046875 -1.359375 Z M 5.28125 -7.390625 C 4.789062 -6.898438 4.546875 -6.273438 4.546875 -5.515625 C 4.546875 -4.753906 4.78125 -4.132812 5.25 -3.65625 C 5.726562 -3.175781 6.359375 -2.9375 7.140625 -2.9375 C 7.890625 -2.9375 8.503906 -3.179688 8.984375 -3.671875 C 9.460938 -4.160156 9.703125 -4.773438 9.703125 -5.515625 C 9.703125 -6.273438 9.453125 -6.898438 8.953125 -7.390625 C 8.460938 -7.878906 7.859375 -8.125 7.140625 -8.125 C 6.398438 -8.125 5.78125 -7.878906 5.28125 -7.390625 Z M 5.28125 -7.390625 "/></g></g></g><g fill="#ffffff" fill-opacity="1"><g transform="translate(175.844582, 39.343845)"><g><path d="M 1.296875 0 L 1.296875 -11.0625 L 5.109375 -11.0625 L 5.109375 -9.890625 L 5.15625 -9.890625 C 6.144531 -10.890625 7.203125 -11.390625 8.328125 -11.390625 C 9.128906 -11.390625 9.878906 -11.222656 10.578125 -10.890625 C 11.285156 -10.554688 11.820312 -10.046875 12.1875 -9.359375 C 13.300781 -10.710938 14.519531 -11.390625 15.84375 -11.390625 C 17.019531 -11.390625 18.03125 -11.054688 18.875 -10.390625 C 19.726562 -9.734375 20.15625 -8.695312 20.15625 -7.28125 L 20.15625 0 L 16.34375 0 L 16.34375 -6.25 C 16.34375 -6.84375 16.179688 -7.335938 15.859375 -7.734375 C 15.535156 -8.128906 15.050781 -8.328125 14.40625 -8.328125 C 13.84375 -8.328125 13.410156 -8.15625 13.109375 -7.8125 C 12.816406 -7.476562 12.660156 -7.070312 12.640625 -6.59375 L 12.640625 0 L 8.8125 0 L 8.8125 -6.25 C 8.8125 -6.84375 8.648438 -7.335938 8.328125 -7.734375 C 8.003906 -8.128906 7.519531 -8.328125 6.875 -8.328125 C 6.289062 -8.328125 5.847656 -8.140625 5.546875 -7.765625 C 5.253906 -7.398438 5.109375 -6.96875 5.109375 -6.46875 L 5.109375 0 Z M 1.296875 0 "/></g></g></g><g fill="#ffffff" fill-opacity="1"><g transform="translate(195.051479, 39.343845)"><g><path d="M 12.671875 -9.6875 C 13.710938 -8.550781 14.234375 -7.160156 14.234375 -5.515625 C 14.234375 -3.878906 13.710938 -2.492188 12.671875 -1.359375 C 11.640625 -0.234375 10.328125 0.328125 8.734375 0.328125 C 7.265625 0.328125 6.054688 -0.195312 5.109375 -1.25 L 5.0625 -1.25 L 5.0625 0 L 1.296875 0 L 1.296875 -18.546875 L 5.109375 -18.546875 L 5.109375 -10 C 6.054688 -10.925781 7.265625 -11.390625 8.734375 -11.390625 C 10.328125 -11.390625 11.640625 -10.820312 12.671875 -9.6875 Z M 9.453125 -3.65625 C 9.929688 -4.132812 10.171875 -4.753906 10.171875 -5.515625 C 10.171875 -6.273438 9.921875 -6.898438 9.421875 -7.390625 C 8.929688 -7.878906 8.320312 -8.125 7.59375 -8.125 C 6.875 -8.125 6.265625 -7.878906 5.765625 -7.390625 C 5.273438 -6.898438 5.03125 -6.273438 5.03125 -5.515625 C 5.03125 -4.773438 5.269531 -4.160156 5.75 -3.671875 C 6.226562 -3.179688 6.84375 -2.9375 7.59375 -2.9375 C 8.363281 -2.9375 8.984375 -3.175781 9.453125 -3.65625 Z M 9.453125 -3.65625 "/></g></g></g><g fill="#ffffff" fill-opacity="1"><g transform="translate(207.748093, 39.343845)"><g><path d="M 2.046875 -1.359375 C 1.015625 -2.492188 0.5 -3.878906 0.5 -5.515625 C 0.5 -7.160156 1.015625 -8.550781 2.046875 -9.6875 C 3.078125 -10.820312 4.394531 -11.390625 6 -11.390625 C 7.457031 -11.390625 8.660156 -10.925781 9.609375 -10 L 9.609375 -11.0625 L 13.4375 -11.0625 L 13.4375 0 L 9.65625 0 L 9.65625 -1.25 L 9.609375 -1.25 C 8.660156 -0.195312 7.457031 0.328125 6 0.328125 C 4.394531 0.328125 3.078125 -0.234375 2.046875 -1.359375 Z M 5.28125 -7.390625 C 4.789062 -6.898438 4.546875 -6.273438 4.546875 -5.515625 C 4.546875 -4.753906 4.78125 -4.132812 5.25 -3.65625 C 5.726562 -3.175781 6.359375 -2.9375 7.140625 -2.9375 C 7.890625 -2.9375 8.503906 -3.179688 8.984375 -3.671875 C 9.460938 -4.160156 9.703125 -4.773438 9.703125 -5.515625 C 9.703125 -6.273438 9.453125 -6.898438 8.953125 -7.390625 C 8.460938 -7.878906 7.859375 -8.125 7.140625 -8.125 C 6.398438 -8.125 5.78125 -7.878906 5.28125 -7.390625 Z M 5.28125 -7.390625 "/></g></g></g><g fill="#ffffff" fill-opacity="1"><g transform="translate(220.444706, 39.343845)"><g><path d="M 6.109375 -11.390625 C 6.734375 -11.390625 7.351562 -11.316406 7.96875 -11.171875 C 8.59375 -11.023438 9.054688 -10.878906 9.359375 -10.734375 L 9.8125 -10.515625 L 8.5625 -8.015625 C 7.695312 -8.484375 6.878906 -8.71875 6.109375 -8.71875 C 5.671875 -8.71875 5.363281 -8.671875 5.1875 -8.578125 C 5.007812 -8.484375 4.921875 -8.304688 4.921875 -8.046875 C 4.921875 -7.984375 4.925781 -7.921875 4.9375 -7.859375 C 4.945312 -7.804688 4.972656 -7.753906 5.015625 -7.703125 C 5.066406 -7.660156 5.109375 -7.617188 5.140625 -7.578125 C 5.179688 -7.546875 5.242188 -7.503906 5.328125 -7.453125 C 5.410156 -7.410156 5.476562 -7.378906 5.53125 -7.359375 C 5.582031 -7.335938 5.664062 -7.304688 5.78125 -7.265625 C 5.894531 -7.222656 5.976562 -7.191406 6.03125 -7.171875 C 6.09375 -7.148438 6.191406 -7.117188 6.328125 -7.078125 C 6.460938 -7.035156 6.566406 -7.003906 6.640625 -6.984375 C 7.085938 -6.859375 7.472656 -6.710938 7.796875 -6.546875 C 8.128906 -6.390625 8.476562 -6.175781 8.84375 -5.90625 C 9.21875 -5.632812 9.503906 -5.289062 9.703125 -4.875 C 9.898438 -4.457031 10 -3.984375 10 -3.453125 C 10 -0.929688 8.253906 0.328125 4.765625 0.328125 C 3.972656 0.328125 3.21875 0.207031 2.5 -0.03125 C 1.789062 -0.28125 1.28125 -0.53125 0.96875 -0.78125 L 0.5 -1.171875 L 2.046875 -3.78125 C 2.160156 -3.675781 2.3125 -3.554688 2.5 -3.421875 C 2.6875 -3.285156 3.023438 -3.097656 3.515625 -2.859375 C 4.003906 -2.617188 4.425781 -2.5 4.78125 -2.5 C 5.570312 -2.5 5.96875 -2.765625 5.96875 -3.296875 C 5.96875 -3.546875 5.867188 -3.738281 5.671875 -3.875 C 5.472656 -4.007812 5.128906 -4.160156 4.640625 -4.328125 C 4.160156 -4.503906 3.785156 -4.664062 3.515625 -4.8125 C 2.828125 -5.164062 2.28125 -5.566406 1.875 -6.015625 C 1.46875 -6.472656 1.265625 -7.078125 1.265625 -7.828125 C 1.265625 -8.953125 1.695312 -9.828125 2.5625 -10.453125 C 3.4375 -11.078125 4.617188 -11.390625 6.109375 -11.390625 Z M 6.109375 -11.390625 "/></g></g></g><g fill="#ffffff" fill-opacity="1"><g transform="translate(229.023894, 39.343845)"><g><path d="M 12.484375 -5 L 4.46875 -5 C 4.46875 -4.226562 4.71875 -3.65625 5.21875 -3.28125 C 5.71875 -2.90625 6.265625 -2.71875 6.859375 -2.71875 C 7.472656 -2.71875 7.957031 -2.800781 8.3125 -2.96875 C 8.675781 -3.132812 9.085938 -3.460938 9.546875 -3.953125 L 12.3125 -2.5625 C 11.164062 -0.632812 9.253906 0.328125 6.578125 0.328125 C 4.910156 0.328125 3.476562 -0.242188 2.28125 -1.390625 C 1.09375 -2.535156 0.5 -3.910156 0.5 -5.515625 C 0.5 -7.128906 1.09375 -8.507812 2.28125 -9.65625 C 3.476562 -10.8125 4.910156 -11.390625 6.578125 -11.390625 C 8.328125 -11.390625 9.75 -10.878906 10.84375 -9.859375 C 11.945312 -8.847656 12.5 -7.398438 12.5 -5.515625 C 12.5 -5.253906 12.492188 -5.082031 12.484375 -5 Z M 4.578125 -7.109375 L 8.78125 -7.109375 C 8.6875 -7.691406 8.457031 -8.132812 8.09375 -8.4375 C 7.726562 -8.75 7.257812 -8.90625 6.6875 -8.90625 C 6.050781 -8.90625 5.546875 -8.738281 5.171875 -8.40625 C 4.796875 -8.070312 4.597656 -7.640625 4.578125 -7.109375 Z M 4.578125 -7.109375 "/></g></g></g><g fill="#feb508" fill-opacity="1"><g transform="translate(246.442377, 25.449335)"><g><path d="M 1.921875 -2.359375 C 2.273438 -2.359375 2.570312 -2.234375 2.8125 -1.984375 C 3.0625 -1.742188 3.1875 -1.445312 3.1875 -1.09375 C 3.1875 -0.75 3.0625 -0.453125 2.8125 -0.203125 C 2.570312 0.046875 2.273438 0.171875 1.921875 0.171875 C 1.578125 0.171875 1.28125 0.046875 1.03125 -0.203125 C 0.78125 -0.453125 0.65625 -0.75 0.65625 -1.09375 C 0.65625 -1.445312 0.78125 -1.742188 1.03125 -1.984375 C 1.28125 -2.234375 1.578125 -2.359375 1.921875 -2.359375 Z M 1.921875 -2.359375 "/></g></g></g><g fill="#ff3131" fill-opacity="1"><g transform="translate(246.442377, 30.817668)"><g><path d="M 1.921875 -2.359375 C 2.273438 -2.359375 2.570312 -2.234375 2.8125 -1.984375 C 3.0625 -1.742188 3.1875 -1.445312 3.1875 -1.09375 C 3.1875 -0.75 3.0625 -0.453125 2.8125 -0.203125 C 2.570312 0.046875 2.273438 0.171875 1.921875 0.171875 C 1.578125 0.171875 1.28125 0.046875 1.03125 -0.203125 C 0.78125 -0.453125 0.65625 -0.75 0.65625 -1.09375 C 0.65625 -1.445312 0.78125 -1.742188 1.03125 -1.984375 C 1.28125 -2.234375 1.578125 -2.359375 1.921875 -2.359375 Z M 1.921875 -2.359375 "/></g></g></g><g fill="#ff66c4" fill-opacity="1"><g transform="translate(246.442377, 36.186)"><g><path d="M 1.921875 -2.359375 C 2.273438 -2.359375 2.570312 -2.234375 2.8125 -1.984375 C 3.0625 -1.742188 3.1875 -1.445312 3.1875 -1.09375 C 3.1875 -0.75 3.0625 -0.453125 2.8125 -0.203125 C 2.570312 0.046875 2.273438 0.171875 1.921875 0.171875 C 1.578125 0.171875 1.28125 0.046875 1.03125 -0.203125 C 0.78125 -0.453125 0.65625 -0.75 0.65625 -1.09375 C 0.65625 -1.445312 0.78125 -1.742188 1.03125 -1.984375 C 1.28125 -2.234375 1.578125 -2.359375 1.921875 -2.359375 Z M 1.921875 -2.359375 "/></g></g></g><g fill="#26ccfc" fill-opacity="1"><g transform="translate(246.442377, 41.554333)"><g><path d="M 1.921875 -2.359375 C 2.273438 -2.359375 2.570312 -2.234375 2.8125 -1.984375 C 3.0625 -1.742188 3.1875 -1.445312 3.1875 -1.09375 C 3.1875 -0.75 3.0625 -0.453125 2.8125 -0.203125 C 2.570312 0.046875 2.273438 0.171875 1.921875 0.171875 C 1.578125 0.171875 1.28125 0.046875 1.03125 -0.203125 C 0.78125 -0.453125 0.65625 -0.75 0.65625 -1.09375 C 0.65625 -1.445312 0.78125 -1.742188 1.03125 -1.984375 C 1.28125 -2.234375 1.578125 -2.359375 1.921875 -2.359375 Z M 1.921875 -2.359375 "/></g></g></g><g fill="#004aad" fill-opacity="1"><g transform="translate(246.442377, 46.922666)"><g><path d="M 1.921875 -2.359375 C 2.273438 -2.359375 2.570312 -2.234375 2.8125 -1.984375 C 3.0625 -1.742188 3.1875 -1.445312 3.1875 -1.09375 C 3.1875 -0.75 3.0625 -0.453125 2.8125 -0.203125 C 2.570312 0.046875 2.273438 0.171875 1.921875 0.171875 C 1.578125 0.171875 1.28125 0.046875 1.03125 -0.203125 C 0.78125 -0.453125 0.65625 -0.75 0.65625 -1.09375 C 0.65625 -1.445312 0.78125 -1.742188 1.03125 -1.984375 C 1.28125 -2.234375 1.578125 -2.359375 1.921875 -2.359375 Z M 1.921875 -2.359375 "/></g></g></g></svg>